<?xml version="1.0" standalone="no"?>
<!DOCTYPE svg PUBLIC "-//W3C//DTD SVG 20010904//EN"
 "http://www.w3.org/TR/2001/REC-SVG-20010904/DTD/svg10.dtd">
<svg version="1.0" xmlns="http://www.w3.org/2000/svg"
 width="499.890439pt" height="499.337923pt" viewBox="0 0 499.890439 499.337923"
 preserveAspectRatio="xMidYMid meet">
<metadata>
Created by potrace 1.12, written by Peter Selinger 2001-2015
</metadata>
<g transform="translate(-250.109561,916.758896) scale(0.100000,-0.100000)"
fill="#000000" stroke="none">
<path d="M6953 9150 c-111 -40 -200 -127 -245 -237 l-23 -58 -3 -1942 -2
-1942 119 -273 c198 -455 212 -485 230 -502 28 -26 72 -29 107 -8 32 20 35 27
271 572 l93 215 0 1906 c0 1246 -4 1925 -10 1960 -24 127 -109 236 -228 292
-59 28 -79 32 -162 34 -73 2 -107 -2 -147 -17z m247 -174 c51 -25 104 -89 120
-144 5 -20 10 -65 10 -99 l0 -63 -240 0 -240 0 0 73 c0 60 5 83 28 127 63 124
197 168 322 106z m130 -2191 l0 -1715 -240 0 -240 0 0 1715 0 1715 240 0 240
0 0 -1715z m-140 -2102 c-50 -114 -94 -211 -98 -215 -6 -6 -192 405 -192 424
0 10 374 15 378 6 2 -4 -38 -100 -88 -215z"/>
<path d="M7065 8345 l-25 -24 0 -1580 c0 -869 3 -1587 6 -1596 10 -25 62 -47
95 -40 63 14 59 -106 59 1633 l0 1583 -25 24 c-15 16 -36 25 -55 25 -19 0 -40
-9 -55 -25z"/>
<path d="M2620 8474 c-42 -18 -76 -49 -98 -89 -16 -28 -17 -183 -20 -1910 -2
-1389 0 -1894 8 -1933 15 -69 67 -124 133 -140 61 -16 3763 -17 3819 -2 48 14
94 53 118 101 20 38 20 72 20 1940 l0 1903 -21 44 c-13 26 -38 54 -62 70 l-41
27 -930 3 c-652 2 -939 -1 -957 -9 -26 -10 -49 -46 -49 -74 0 -27 22 -63 47
-74 17 -8 288 -11 933 -11 l910 0 -2 -1877 -3 -1878 -1875 0 -1875 0 0 1875 0
1875 713 5 714 5 24 28 c32 38 31 72 -5 108 l-29 29 -719 0 c-619 -1 -723 -3
-753 -16z"/>
<path d="M2950 8097 c-30 -16 -51 -37 -67 -67 -23 -43 -23 -46 -23 -412 0
-401 1 -408 56 -460 48 -44 85 -48 454 -48 361 1 395 4 442 47 52 47 53 53 56
435 2 237 -1 370 -8 397 -14 54 -63 108 -108 121 -22 6 -184 10 -398 10 -357
0 -361 0 -404 -23z m748 -479 l-3 -333 -332 -3 -333 -2 0 335 0 335 335 0 335
0 -2 -332z"/>
<path d="M3244 7786 c-3 -8 -4 -23 -2 -33 3 -15 15 -18 81 -21 42 -2 77 -5 77
-8 0 -3 -27 -64 -60 -136 -33 -71 -60 -141 -60 -153 0 -25 26 -40 51 -30 8 3
50 84 93 181 62 137 77 180 69 192 -14 24 -240 31 -249 8z"/>
<path d="M4140 8098 c-33 -17 -51 -35 -67 -68 -23 -43 -23 -50 -23 -414 0
-348 1 -372 20 -410 11 -23 36 -52 57 -66 l37 -25 385 0 c371 0 387 1 421 21
19 11 45 35 57 54 23 33 23 35 23 422 0 432 1 423 -67 475 l-36 28 -381 3
c-380 3 -381 3 -426 -20z m748 -480 l-3 -333 -332 -3 -333 -2 0 335 0 335 335
0 335 0 -2 -332z"/>
<path d="M5330 8098 c-30 -15 -53 -37 -67 -63 -22 -39 -23 -45 -23 -418 0
-356 1 -380 20 -416 11 -22 36 -50 57 -62 l38 -24 385 0 c427 0 423 -1 472 67
l23 33 3 396 3 395 -23 35 c-13 18 -43 44 -68 57 -43 22 -51 22 -410 22 -359
0 -367 0 -410 -22z m740 -483 l0 -335 -330 0 -330 0 0 335 0 335 330 0 330 0
0 -335z"/>
<path d="M2940 6918 c-18 -13 -43 -36 -54 -51 -20 -28 -21 -41 -24 -410 -3
-381 -3 -382 20 -427 15 -30 37 -53 63 -67 39 -22 46 -23 413 -23 405 0 414 1
465 56 44 47 49 99 45 479 -3 392 -3 391 -75 440 l-38 25 -391 0 c-389 0 -391
0 -424 -22z m760 -479 l0 -329 -335 0 -335 0 0 330 0 330 328 2 c180 2 330 2
335 0 4 -2 7 -151 7 -333z"/>
<path d="M4130 6918 c-18 -13 -43 -36 -54 -51 -20 -28 -21 -38 -21 -426 l0
-398 27 -35 c53 -69 52 -69 482 -66 372 3 385 4 413 24 15 11 38 36 51 54 22
33 22 35 22 424 l0 391 -24 36 c-47 69 -49 69 -479 69 -382 0 -384 0 -417 -22z
m760 -478 l0 -330 -335 0 -335 0 0 330 0 330 335 0 335 0 0 -330z"/>
<path d="M4511 6613 c-88 -43 -96 -175 -14 -228 17 -12 46 -19 75 -19 l47 0 3
-70 c3 -67 4 -71 27 -74 43 -7 51 19 51 168 0 154 -11 190 -71 222 -42 22 -74
23 -118 1z m90 -73 c23 -13 26 -62 3 -84 -21 -22 -50 -20 -74 4 -24 24 -25 38
-4 68 16 24 44 28 75 12z"/>
<path d="M5320 6918 c-18 -13 -43 -36 -54 -51 -20 -28 -21 -38 -21 -427 0
-387 1 -399 21 -426 11 -15 33 -37 48 -48 27 -20 39 -21 426 -21 389 0 399 1
427 21 15 11 38 36 51 54 22 33 22 35 22 417 0 425 -1 431 -64 476 -31 22 -36
22 -427 25 l-395 3 -34 -23z m750 -478 l0 -330 -330 0 -330 0 0 330 0 330 330
0 330 0 0 -330z"/>
<path d="M2950 5748 c-33 -17 -51 -35 -68 -68 -23 -45 -23 -46 -20 -427 3
-367 4 -383 24 -409 11 -15 33 -37 48 -48 26 -20 44 -21 389 -26 200 -3 382
-2 405 1 50 6 90 33 117 80 19 32 20 55 23 384 3 233 0 367 -8 401 -12 55 -53
104 -103 123 -18 7 -161 11 -396 11 -360 0 -368 0 -411 -22z m748 -480 l-3
-333 -332 -3 -333 -2 0 335 0 335 335 0 335 0 -2 -332z"/>
<path d="M3268 5458 c-21 -17 -43 -181 -27 -209 12 -22 35 -24 69 -4 57 33
110 7 110 -53 0 -33 -29 -62 -63 -62 -11 0 -34 16 -52 36 -25 27 -38 34 -53
30 -43 -14 -35 -65 18 -109 62 -52 168 -34 210 36 35 56 21 147 -30 192 -16
15 -36 20 -76 20 -52 0 -54 1 -54 27 0 27 1 27 73 30 71 3 72 3 75 32 2 16 -2
32 -10 37 -21 14 -172 11 -190 -3z"/>
<path d="M4140 5748 c-33 -17 -51 -35 -67 -68 -23 -43 -23 -51 -23 -411 0
-236 4 -378 11 -396 13 -35 57 -82 88 -94 13 -5 197 -9 408 -9 429 0 423 -1
470 70 23 33 23 35 23 425 0 390 0 392 -22 425 -13 18 -36 43 -51 54 -28 20
-41 21 -410 24 -380 3 -382 2 -427 -20z m748 -480 l-3 -333 -332 -3 -333 -2 0
335 0 335 335 0 335 0 -2 -332z"/>
<path d="M5334 5751 c-23 -10 -52 -34 -65 -52 l-24 -34 -3 -387 c-2 -334 -1
-392 13 -418 19 -37 52 -69 84 -81 14 -6 190 -10 410 -9 l386 0 36 24 c69 46
69 49 69 479 0 382 0 384 -22 417 -13 18 -36 43 -51 54 -28 20 -41 21 -410 23
-356 3 -385 2 -423 -16z m736 -486 l0 -335 -330 0 -330 0 0 335 0 335 330 0
330 0 0 -335z"/>
<path d="M5669 5463 c-53 -32 -76 -103 -41 -122 22 -12 62 11 62 34 0 20 37
37 61 30 26 -9 39 -43 27 -76 -5 -15 -33 -53 -61 -85 -93 -105 -106 -122 -100
-144 7 -27 30 -31 142 -28 76 2 96 6 105 21 20 32 -4 52 -68 55 l-57 3 47 52
c73 81 93 152 59 217 -29 56 -120 78 -176 43z"/>
</g>
</svg>
